# xmcd
#
# Track frame offsets:
#  150
#  17584
#  37050
#  59506
#  72992
#  89404
#  105851
#  123441
#  141063
#  161066
#
# Disc length: 2359 seconds
#
# Revision: 0
# Processed by: cddbd v1.5.2PL0 Copyright (c) Steve Scherf et al.
# Submitted via: AltoMP3_Maker 3.0
#
DISCID=8509350a
DTITLE=Lost 2gether - We Can Just Be
DYEAR=1900
DGENRE=
TTITLE0=Jolene
TTITLE1=Who Said  (Lipstick Stains and Lies)
TTITLE2=Weathervane
TTITLE3=One More Taste
TTITLE4=Coulda
TTITLE5=Love Thang
TTITLE6=Jealous
TTITLE7=Windows
TTITLE8=My Questions 
TTITLE9=Stand (Rain On)
EXTD=
EXTT0=
EXTT1=
EXTT2=
EXTT3=
EXTT4=
EXTT5=
EXTT6=
EXTT7=
EXTT8=
EXTT9=
PLAYORDER=
